G75*
%MOIN*%
%OFA0B0*%
%FSLAX24Y24*%
%IPPOS*%
%LPD*%
%AMOC8*
5,1,8,0,0,1.08239X$1,22.5*
%
%ADD10R,0.0118X0.0476*%
%ADD11R,0.0283X0.0394*%
%ADD12R,0.0709X0.0866*%
%ADD13R,0.0118X0.0630*%
D10*
X005835Y002560D03*
X006032Y002560D03*
X006228Y002560D03*
X006425Y002560D03*
X025085Y002460D03*
X025282Y002460D03*
X025478Y002460D03*
X025675Y002460D03*
D11*
X005504Y002027D03*
X006756Y002027D03*
X024754Y001927D03*
X026006Y001927D03*
D12*
X018872Y001542D03*
X007809Y001542D03*
D13*
X008557Y002881D03*
X008754Y002881D03*
X008951Y002881D03*
X009148Y002881D03*
X009345Y002881D03*
X009541Y002881D03*
X009738Y002881D03*
X009935Y002881D03*
X010132Y002881D03*
X010329Y002881D03*
X010526Y002881D03*
X010723Y002881D03*
X010919Y002881D03*
X011116Y002881D03*
X011313Y002881D03*
X011510Y002881D03*
X011707Y002881D03*
X011904Y002881D03*
X012100Y002881D03*
X012297Y002881D03*
X012494Y002881D03*
X012691Y002881D03*
X012888Y002881D03*
X013085Y002881D03*
X013282Y002881D03*
X013478Y002881D03*
X013675Y002881D03*
X013872Y002881D03*
X014069Y002881D03*
X014266Y002881D03*
X014463Y002881D03*
X014660Y002881D03*
X014856Y002881D03*
X015053Y002881D03*
X015250Y002881D03*
X015447Y002881D03*
X015644Y002881D03*
X015841Y002881D03*
X016037Y002881D03*
X016234Y002881D03*
X016431Y002881D03*
X016628Y002881D03*
X016825Y002881D03*
X017022Y002881D03*
X017219Y002881D03*
X017415Y002881D03*
X017612Y002881D03*
X017809Y002881D03*
X018006Y002881D03*
X018203Y002881D03*
M02*
