G75*
%MOIN*%
%OFA0B0*%
%FSLAX24Y24*%
%IPPOS*%
%LPD*%
%AMOC8*
5,1,8,0,0,1.08239X$1,22.5*
%
%ADD10C,0.0075*%
%ADD11C,0.0030*%
%ADD12C,0.0098*%
%ADD13C,0.0060*%
D10*
X005264Y001401D02*
X005264Y003054D01*
X006996Y003054D01*
X006996Y001401D01*
X007356Y001149D02*
X007356Y003806D01*
X019325Y003806D01*
X019325Y001149D01*
X018203Y003294D02*
X018203Y003668D01*
X016431Y003668D02*
X016431Y003294D01*
X014463Y003294D02*
X014463Y003668D01*
X012494Y003668D02*
X012494Y003294D01*
X010526Y003294D02*
X010526Y003668D01*
X008557Y003668D02*
X008557Y003294D01*
X003255Y006006D02*
X003255Y008256D01*
X023505Y008256D01*
X023505Y006006D01*
X003255Y006006D01*
X003005Y006006D02*
X000755Y006006D01*
X000755Y008256D01*
X003005Y008256D01*
X003005Y006006D01*
X024255Y005906D02*
X024255Y008156D01*
X026505Y008156D01*
X026505Y005906D01*
X024255Y005906D01*
X024514Y002954D02*
X024514Y001301D01*
X026246Y001301D02*
X026246Y002954D01*
X024514Y002954D01*
D11*
X024732Y002768D02*
X024805Y002841D01*
X024805Y002621D01*
X024732Y002621D02*
X024879Y002621D01*
X025775Y002731D02*
X025922Y002731D01*
X025885Y002841D02*
X025775Y002731D01*
X025885Y002621D02*
X025885Y002841D01*
X025858Y003046D02*
X025895Y003083D01*
X025895Y003266D01*
X025931Y003266D02*
X025858Y003266D01*
X026015Y003266D02*
X026015Y003156D01*
X026088Y003193D01*
X026125Y003193D01*
X026162Y003156D01*
X026162Y003083D01*
X026125Y003046D01*
X026052Y003046D01*
X026015Y003083D01*
X025858Y003046D02*
X025821Y003046D01*
X025785Y003083D01*
X026015Y003266D02*
X026162Y003266D01*
X018036Y003414D02*
X017889Y003414D01*
X017963Y003414D02*
X017963Y003634D01*
X017889Y003560D01*
X016264Y003597D02*
X016118Y003450D01*
X016154Y003414D01*
X016228Y003414D01*
X016264Y003450D01*
X016264Y003597D01*
X016228Y003634D01*
X016154Y003634D01*
X016118Y003597D01*
X016118Y003450D01*
X016034Y003414D02*
X015887Y003414D01*
X015961Y003414D02*
X015961Y003634D01*
X015887Y003560D01*
X014296Y003597D02*
X014296Y003450D01*
X014259Y003414D01*
X014186Y003414D01*
X014149Y003450D01*
X014296Y003597D01*
X014259Y003634D01*
X014186Y003634D01*
X014149Y003597D01*
X014149Y003450D01*
X014066Y003414D02*
X013919Y003414D01*
X014066Y003560D01*
X014066Y003597D01*
X014029Y003634D01*
X013956Y003634D01*
X013919Y003597D01*
X012327Y003597D02*
X012327Y003450D01*
X012291Y003414D01*
X012217Y003414D01*
X012181Y003450D01*
X012327Y003597D01*
X012291Y003634D01*
X012217Y003634D01*
X012181Y003597D01*
X012181Y003450D01*
X012097Y003450D02*
X012060Y003414D01*
X011987Y003414D01*
X011950Y003450D01*
X012024Y003524D02*
X012060Y003524D01*
X012097Y003487D01*
X012097Y003450D01*
X012060Y003524D02*
X012097Y003560D01*
X012097Y003597D01*
X012060Y003634D01*
X011987Y003634D01*
X011950Y003597D01*
X010319Y003597D02*
X010173Y003450D01*
X010209Y003414D01*
X010283Y003414D01*
X010319Y003450D01*
X010319Y003597D01*
X010283Y003634D01*
X010209Y003634D01*
X010173Y003597D01*
X010173Y003450D01*
X010089Y003524D02*
X009942Y003524D01*
X010053Y003634D01*
X010053Y003414D01*
X008390Y003450D02*
X008354Y003414D01*
X008280Y003414D01*
X008244Y003450D01*
X008390Y003597D01*
X008390Y003450D01*
X008244Y003450D02*
X008244Y003597D01*
X008280Y003634D01*
X008354Y003634D01*
X008390Y003597D01*
X008160Y003634D02*
X008013Y003634D01*
X008013Y003524D01*
X008087Y003560D01*
X008123Y003560D01*
X008160Y003524D01*
X008160Y003450D01*
X008123Y003414D01*
X008050Y003414D01*
X008013Y003450D01*
X006912Y003329D02*
X006875Y003366D01*
X006802Y003366D01*
X006765Y003329D01*
X006681Y003366D02*
X006608Y003366D01*
X006645Y003366D02*
X006645Y003183D01*
X006608Y003146D01*
X006571Y003146D01*
X006535Y003183D01*
X006765Y003146D02*
X006912Y003293D01*
X006912Y003329D01*
X006912Y003146D02*
X006765Y003146D01*
X006635Y002941D02*
X006525Y002831D01*
X006672Y002831D01*
X006635Y002721D02*
X006635Y002941D01*
X005629Y002721D02*
X005482Y002721D01*
X005555Y002721D02*
X005555Y002941D01*
X005482Y002868D01*
D12*
X005126Y003172D02*
X005128Y003180D01*
X005133Y003187D01*
X005140Y003191D01*
X005148Y003192D01*
X005156Y003189D01*
X005162Y003184D01*
X005166Y003176D01*
X005166Y003168D01*
X005162Y003160D01*
X005156Y003155D01*
X005148Y003152D01*
X005140Y003153D01*
X005133Y003157D01*
X005128Y003164D01*
X005126Y003172D01*
X019403Y003905D02*
X019405Y003913D01*
X019410Y003920D01*
X019417Y003924D01*
X019425Y003925D01*
X019433Y003922D01*
X019439Y003917D01*
X019443Y003909D01*
X019443Y003901D01*
X019439Y003893D01*
X019433Y003888D01*
X019425Y003885D01*
X019417Y003886D01*
X019410Y003890D01*
X019405Y003897D01*
X019403Y003905D01*
X024376Y003072D02*
X024378Y003080D01*
X024383Y003087D01*
X024390Y003091D01*
X024398Y003092D01*
X024406Y003089D01*
X024412Y003084D01*
X024416Y003076D01*
X024416Y003068D01*
X024412Y003060D01*
X024406Y003055D01*
X024398Y003052D01*
X024390Y003053D01*
X024383Y003057D01*
X024378Y003064D01*
X024376Y003072D01*
D13*
X025613Y005311D02*
X025686Y005311D01*
X025759Y005384D01*
X025759Y005751D01*
X025686Y005751D02*
X025833Y005751D01*
X026000Y005531D02*
X026146Y005678D01*
X026293Y005751D01*
X026220Y005531D02*
X026000Y005531D01*
X026000Y005384D01*
X026073Y005311D01*
X026220Y005311D01*
X026293Y005384D01*
X026293Y005458D01*
X026220Y005531D01*
X025613Y005311D02*
X025539Y005384D01*
X023243Y005484D02*
X023170Y005411D01*
X023023Y005411D01*
X022950Y005484D01*
X023023Y005631D02*
X022950Y005704D01*
X022950Y005778D01*
X023023Y005851D01*
X023170Y005851D01*
X023243Y005778D01*
X023243Y005484D01*
X023243Y005631D02*
X023023Y005631D01*
X022783Y005851D02*
X022636Y005851D01*
X022709Y005851D02*
X022709Y005484D01*
X022636Y005411D01*
X022563Y005411D01*
X022489Y005484D01*
X019143Y004383D02*
X019143Y004310D01*
X018850Y004016D01*
X018850Y003943D01*
X018609Y004016D02*
X018609Y004383D01*
X018536Y004383D02*
X018683Y004383D01*
X018850Y004383D02*
X019143Y004383D01*
X018609Y004016D02*
X018536Y003943D01*
X018463Y003943D01*
X018389Y004016D01*
X002793Y005484D02*
X002720Y005411D01*
X002573Y005411D01*
X002500Y005484D01*
X002646Y005631D02*
X002720Y005631D01*
X002793Y005558D01*
X002793Y005484D01*
X002720Y005631D02*
X002793Y005704D01*
X002793Y005778D01*
X002720Y005851D01*
X002573Y005851D01*
X002500Y005778D01*
X002333Y005851D02*
X002186Y005851D01*
X002259Y005851D02*
X002259Y005484D01*
X002186Y005411D01*
X002113Y005411D01*
X002039Y005484D01*
M02*
