G75*
%MOIN*%
%OFA0B0*%
%FSLAX24Y24*%
%IPPOS*%
%LPD*%
%AMOC8*
5,1,8,0,0,1.08239X$1,22.5*
%
%ADD10C,0.1550*%
%ADD11C,0.0190*%
%ADD12R,0.0168X0.0526*%
%ADD13R,0.0333X0.0444*%
%ADD14R,0.0759X0.0916*%
%ADD15R,0.0168X0.0680*%
%ADD16R,0.0790X0.0790*%
%ADD17C,0.0790*%
%ADD18R,0.0740X0.0740*%
%ADD19C,0.0740*%
D10*
X002130Y002331D03*
X002130Y011831D03*
X022130Y011831D03*
X022130Y002331D03*
D11*
X023630Y006731D03*
X023630Y006931D03*
X023630Y007131D03*
X023630Y007331D03*
X024130Y007331D03*
X024130Y007131D03*
X024130Y006931D03*
X024130Y006731D03*
D12*
X025085Y011602D03*
X025282Y011602D03*
X025478Y011602D03*
X025675Y011602D03*
X006425Y011702D03*
X006228Y011702D03*
X006032Y011702D03*
X005835Y011702D03*
D13*
X005504Y012235D03*
X006756Y012235D03*
X024754Y012135D03*
X026006Y012135D03*
D14*
X018872Y012719D03*
X007809Y012719D03*
D15*
X008557Y011381D03*
X008754Y011381D03*
X008951Y011381D03*
X009148Y011381D03*
X009345Y011381D03*
X009541Y011381D03*
X009738Y011381D03*
X009935Y011381D03*
X010132Y011381D03*
X010329Y011381D03*
X010526Y011381D03*
X010723Y011381D03*
X010919Y011381D03*
X011116Y011381D03*
X011313Y011381D03*
X011510Y011381D03*
X011707Y011381D03*
X011904Y011381D03*
X012100Y011381D03*
X012297Y011381D03*
X012494Y011381D03*
X012691Y011381D03*
X012888Y011381D03*
X013085Y011381D03*
X013282Y011381D03*
X013478Y011381D03*
X013675Y011381D03*
X013872Y011381D03*
X014069Y011381D03*
X014266Y011381D03*
X014463Y011381D03*
X014660Y011381D03*
X014856Y011381D03*
X015053Y011381D03*
X015250Y011381D03*
X015447Y011381D03*
X015644Y011381D03*
X015841Y011381D03*
X016037Y011381D03*
X016234Y011381D03*
X016431Y011381D03*
X016628Y011381D03*
X016825Y011381D03*
X017022Y011381D03*
X017219Y011381D03*
X017415Y011381D03*
X017612Y011381D03*
X017809Y011381D03*
X018006Y011381D03*
X018203Y011381D03*
D16*
X024880Y007531D03*
X001380Y007631D03*
D17*
X002380Y007631D03*
X002380Y006631D03*
X001380Y006631D03*
X024880Y006531D03*
X025880Y006531D03*
X025880Y007531D03*
D18*
X022880Y007631D03*
D19*
X021880Y007631D03*
X020880Y007631D03*
X019880Y007631D03*
X018880Y007631D03*
X017880Y007631D03*
X016880Y007631D03*
X015880Y007631D03*
X014880Y007631D03*
X013880Y007631D03*
X012880Y007631D03*
X011880Y007631D03*
X010880Y007631D03*
X009880Y007631D03*
X008880Y007631D03*
X007880Y007631D03*
X006880Y007631D03*
X005880Y007631D03*
X004880Y007631D03*
X003880Y007631D03*
X003880Y006631D03*
X004880Y006631D03*
X005880Y006631D03*
X006880Y006631D03*
X007880Y006631D03*
X008880Y006631D03*
X009880Y006631D03*
X010880Y006631D03*
X011880Y006631D03*
X012880Y006631D03*
X013880Y006631D03*
X014880Y006631D03*
X015880Y006631D03*
X016880Y006631D03*
X017880Y006631D03*
X018880Y006631D03*
X019880Y006631D03*
X020880Y006631D03*
X021880Y006631D03*
X022880Y006631D03*
M02*
