G75*
%MOIN*%
%OFA0B0*%
%FSLAX24Y24*%
%IPPOS*%
%LPD*%
%AMOC8*
5,1,8,0,0,1.08239X$1,22.5*
%
%ADD10C,0.0075*%
%ADD11C,0.0030*%
%ADD12C,0.0098*%
%ADD13C,0.0060*%
D10*
X007356Y010456D02*
X007356Y013113D01*
X006996Y012861D02*
X006996Y011208D01*
X005264Y011208D01*
X005264Y012861D01*
X008557Y010968D02*
X008557Y010594D01*
X007356Y010456D02*
X019325Y010456D01*
X019325Y013113D01*
X018203Y010968D02*
X018203Y010594D01*
X016431Y010594D02*
X016431Y010968D01*
X014463Y010968D02*
X014463Y010594D01*
X012494Y010594D02*
X012494Y010968D01*
X010526Y010968D02*
X010526Y010594D01*
X024514Y011108D02*
X024514Y012761D01*
X026246Y012761D02*
X026246Y011108D01*
X024514Y011108D01*
D11*
X024785Y011221D02*
X024932Y011221D01*
X024859Y011221D02*
X024859Y011441D01*
X024932Y011368D01*
X025828Y011331D02*
X025975Y011331D01*
X025865Y011441D01*
X025865Y011221D01*
X025875Y011016D02*
X025985Y010906D01*
X025838Y010906D01*
X025875Y010796D02*
X025875Y011016D01*
X026068Y011016D02*
X026142Y011016D01*
X026105Y011016D02*
X026105Y010833D01*
X026142Y010796D01*
X026178Y010796D01*
X026215Y010833D01*
X018089Y010775D02*
X018016Y010848D01*
X018016Y010628D01*
X018089Y010628D02*
X017943Y010628D01*
X016318Y010628D02*
X016171Y010628D01*
X016244Y010628D02*
X016244Y010848D01*
X016318Y010775D01*
X016088Y010812D02*
X016088Y010665D01*
X015941Y010812D01*
X015941Y010665D01*
X015977Y010628D01*
X016051Y010628D01*
X016088Y010665D01*
X016088Y010812D02*
X016051Y010848D01*
X015977Y010848D01*
X015941Y010812D01*
X014349Y010812D02*
X014313Y010848D01*
X014239Y010848D01*
X014202Y010812D01*
X014202Y010775D01*
X014349Y010628D01*
X014202Y010628D01*
X014119Y010665D02*
X013972Y010812D01*
X013972Y010665D01*
X014009Y010628D01*
X014082Y010628D01*
X014119Y010665D01*
X014119Y010812D01*
X014082Y010848D01*
X014009Y010848D01*
X013972Y010812D01*
X012381Y010812D02*
X012344Y010848D01*
X012271Y010848D01*
X012234Y010812D01*
X012234Y010775D01*
X012271Y010738D01*
X012234Y010702D01*
X012234Y010665D01*
X012271Y010628D01*
X012344Y010628D01*
X012381Y010665D01*
X012307Y010738D02*
X012271Y010738D01*
X012151Y010665D02*
X012151Y010812D01*
X012114Y010848D01*
X012040Y010848D01*
X012004Y010812D01*
X012151Y010665D01*
X012114Y010628D01*
X012040Y010628D01*
X012004Y010665D01*
X012004Y010812D01*
X010373Y010738D02*
X010226Y010738D01*
X010143Y010665D02*
X009996Y010812D01*
X009996Y010665D01*
X010033Y010628D01*
X010106Y010628D01*
X010143Y010665D01*
X010143Y010812D01*
X010106Y010848D01*
X010033Y010848D01*
X009996Y010812D01*
X010263Y010848D02*
X010263Y010628D01*
X010373Y010738D02*
X010263Y010848D01*
X008444Y010848D02*
X008444Y010738D01*
X008370Y010775D01*
X008334Y010775D01*
X008297Y010738D01*
X008297Y010665D01*
X008334Y010628D01*
X008407Y010628D01*
X008444Y010665D01*
X008214Y010665D02*
X008067Y010812D01*
X008067Y010665D01*
X008103Y010628D01*
X008177Y010628D01*
X008214Y010665D01*
X008214Y010812D01*
X008177Y010848D01*
X008103Y010848D01*
X008067Y010812D01*
X008297Y010848D02*
X008444Y010848D01*
X006965Y010933D02*
X006928Y010896D01*
X006892Y010896D01*
X006855Y010933D01*
X006855Y011116D01*
X006892Y011116D02*
X006818Y011116D01*
X006735Y011043D02*
X006661Y011116D01*
X006661Y010896D01*
X006588Y010896D02*
X006735Y010896D01*
X006615Y011321D02*
X006615Y011541D01*
X006725Y011431D01*
X006578Y011431D01*
X005682Y011468D02*
X005609Y011541D01*
X005609Y011321D01*
X005682Y011321D02*
X005535Y011321D01*
D12*
X005126Y011090D02*
X005128Y011098D01*
X005133Y011105D01*
X005140Y011109D01*
X005148Y011110D01*
X005156Y011107D01*
X005162Y011102D01*
X005166Y011094D01*
X005166Y011086D01*
X005162Y011078D01*
X005156Y011073D01*
X005148Y011070D01*
X005140Y011071D01*
X005133Y011075D01*
X005128Y011082D01*
X005126Y011090D01*
X019403Y010357D02*
X019405Y010365D01*
X019410Y010372D01*
X019417Y010376D01*
X019425Y010377D01*
X019433Y010374D01*
X019439Y010369D01*
X019443Y010361D01*
X019443Y010353D01*
X019439Y010345D01*
X019433Y010340D01*
X019425Y010337D01*
X019417Y010338D01*
X019410Y010342D01*
X019405Y010349D01*
X019403Y010357D01*
X024376Y010990D02*
X024378Y010998D01*
X024383Y011005D01*
X024390Y011009D01*
X024398Y011010D01*
X024406Y011007D01*
X024412Y011002D01*
X024416Y010994D01*
X024416Y010986D01*
X024412Y010978D01*
X024406Y010973D01*
X024398Y010970D01*
X024390Y010971D01*
X024383Y010975D01*
X024378Y010982D01*
X024376Y010990D01*
D13*
X018569Y009879D02*
X018496Y009952D01*
X018496Y010026D01*
X018569Y010099D01*
X018716Y010099D01*
X018790Y010173D01*
X018790Y010246D01*
X018716Y010319D01*
X018569Y010319D01*
X018496Y010246D01*
X018496Y010173D01*
X018569Y010099D01*
X018716Y010099D02*
X018790Y010026D01*
X018790Y009952D01*
X018716Y009879D01*
X018569Y009879D01*
X019030Y009952D02*
X019030Y010319D01*
X019103Y010319D02*
X018956Y010319D01*
X019030Y009952D02*
X019103Y009879D01*
X019177Y009879D01*
X019250Y009952D01*
M02*
